PathFileType	4	(X/Y/Z)	E:\Qualisys_Data\Carbon_Farble_Plate\Data\Amateur_Runner\S2\T3\S2T3V23_c3d.trc
DataRate	CameraRate	NumFrames	NumMarkers	Units	OrigDataRate	OrigDataStartFrame	OrigNumFrames
200.000000	200.000000	4	39	mm	200.000000	158	317
Frame#	Time	LSHO			RSHO			LICST			RICST			LASIS			LHEEL			RASIS			LTROC			RTROC			SACR			LTH1			LSK4			LTH2			LTH3			RHM5			LSK2			LTH4			RTH1			LTOE			RTH2			RTH3			RTH4			LLEP			RLEP			LSK1			LSK3			RSK1			LHM5			RSK2			LFT1			RSK3			RSK4			LLME			RLME			RTOE			RHEEL			RFT1			RFT2			LFT2			
		X1	Y1	Z1	X2	Y2	Z2	X3	Y3	Z3	X4	Y4	Z4	X5	Y5	Z5	X6	Y6	Z6	X7	Y7	Z7	X8	Y8	Z8	X9	Y9	Z9	X10	Y10	Z10	X11	Y11	Z11	X12	Y12	Z12	X13	Y13	Z13	X14	Y14	Z14	X15	Y15	Z15	X16	Y16	Z16	X17	Y17	Z17	X18	Y18	Z18	X19	Y19	Z19	X20	Y20	Z20	X21	Y21	Z21	X22	Y22	Z22	X23	Y23	Z23	X24	Y24	Z24	X25	Y25	Z25	X26	Y26	Z26	X27	Y27	Z27	X28	Y28	Z28	X29	Y29	Z29	X30	Y30	Z30	X31	Y31	Z31	X32	Y32	Z32	X33	Y33	Z33	X34	Y34	Z34	X35	Y35	Z35	X36	Y36	Z36	X37	Y37	Z37	X38	Y38	Z38	X39	Y39	Z39	

159	0.79	-30.43840408325195	1498.400634765625	-407.7527465820312	-88.36033630371094	1480.503540039062	-111.9070205688477	-103.3863296508789	1032.072387695312	-413.2847290039062	-94.61219787597656	1025.796508789062	-115.6335906982422	-52.84481811523438	977.8660278320312	-400.8726196289062	-635.667236328125	508.2312316894531	-280.5068664550781	-37.98091125488281	980.5297241210938	-147.0128021240234	-200.1311798095703	927.875	-412.4695739746094	-168.0225677490234	920.6818237304688	-101.2520370483398	-193.7467651367188	1072.316162109375	-267.5946044921875	-158.8711395263672	668.4389038085938	-419.03564453125	-493.73974609375	536.171630859375	-378.7312927246094	-237.4677734375	695.6364135742188	-418.426025390625	-193.0419769287109	572.0899658203125	-403.9192810058594	261.2710876464844	163.2405395507812	-117.8139190673828	-399.20263671875	559.2772216796875	-402.3390808105469	-271.8482055664062	603.5170288085938	-392.7628173828125	43.85862731933594	686.1139526367188	-94.60533142089844	-717.2217407226562	272.3382568359375	-321.5873413085938	-31.39876747131348	658.9607543945312	-88.13593292236328	73.00556945800781	591.9630737304688	-123.2573089599609	-4.567181587219238	569.0404663085938	-115.5885314941406	-261.5427551269531	550.1402587890625	-401.5180053710938	39.1525764465332	549.567138671875	-115.7045516967773	-381.0234680175781	481.4448852539062	-401.2515869140625	-478.010498046875	459.4578857421875	-385.4396362304688	101.1133499145508	442.6026611328125	-114.1598434448242	-733.8983764648438	346.1969299316406	-361.9054260253906	23.97536468505859	425.0082702636719	-102.0792846679688	-655.0748291015625	498.3922119140625	-247.5452270507812	123.1453247070312	343.2333374023438	-124.0293579101562	44.99151992797852	329.0323181152344	-114.3962249755859	-651.286376953125	455.4311828613281	-343.7113647460938	131.9955902099609	150.8181457519531	-146.8061676025391	312.0101623535156	211.0379638671875	-171.87158203125	83.77196502685547	105.8198623657227	-205.2698211669922	109.0431518554688	90.59626007080078	-235.0031890869141	94.97443389892578	80.92750549316406	-185.6524658203125	-670.7107543945312	515.8049926757812	-295.8367004394531
160	0.795	-10.73678588867188	1495.307495117188	-407.1726379394531	-68.67142486572266	1476.269653320312	-110.6748580932617	-83.90740966796875	1028.877563476562	-413.2629699707031	-75.5746841430664	1022.420471191406	-115.8452072143555	-32.96388626098633	974.9222412109376	-400.6165466308594	-610.8922119140625	514.8370971679688	-281.2644348144531	-18.45995903015137	977.6793212890624	-146.9161834716797	-179.88623046875	924.3422241210938	-412.9684753417969	-148.7329711914062	917.2490234375	-101.0883483886719	-174.3800659179688	1069.442504882812	-267.5662231445312	-135.6390991210938	664.743896484375	-419.9381103515625	-468.2588195800781	537.5781860351562	-378.715576171875	-214.5342559814453	690.7764892578125	-418.5493774414062	-168.4175109863281	567.82421875	-405.0012817382812	277.4642944335938	158.7704315185547	-118.6683502197266	-372.9306030273438	557.7612915039062	-403.0215454101562	-247.7841033935547	597.9542236328125	-393.5008544921875	62.47354888916016	682.0742797851562	-94.00228118896484	-700.1021118164062	282.1083679199219	-323.1944580078125	-12.73431205749512	653.8497314453125	-86.16769409179688	92.68003082275392	588.80615234375	-124.4026641845703	14.5479907989502	564.0853881835938	-117.4180603027344	-236.688232421875	544.6786499023438	-402.5378723144531	58.27534866333008	546.01025390625	-115.6848678588867	-357.6187438964844	479.7173461914062	-401.8338317871094	-454.918701171875	460.7698669433594	-385.4495544433594	119.1968536376953	438.4053344726562	-115.2682418823242	-713.9302978515625	357.0565795898438	-362.9825439453125	42.17340850830078	421.5498657226562	-102.5241012573242	-629.9290161132812	505.2257995605469	-246.7019805908203	140.5102691650391	338.9613647460938	-125.1333084106445	62.81622695922852	325.1277465820312	-115.7564315795898	-627.6458129882812	463.2817993164062	-343.41845703125	148.2956695556641	146.3826446533203	-148.3628234863281	328.3179321289062	206.4012603759766	-172.4427490234375	100.0022125244141	102.2149276733398	-207.3586730957031	125.161750793457	86.88528442382812	-237.0413513183594	111.075798034668	76.51840209960938	-187.6424865722656	-645.002197265625	523.3670654296875	-295.2092895507812
161	0.8	8.775800704956055	1491.977172851562	-406.4899291992188	-48.50820541381836	1471.526245117188	-109.3536529541016	-64.33501434326172	1025.534423828125	-413.3636169433594	-56.00864028930664	1019.412292480469	-115.5665664672852	-13.40208148956299	971.8397827148438	-400.472900390625	-585.046142578125	520.577880859375	-280.8252258300781	0.4398310482501984	974.3732299804688	-146.5709075927734	-159.4972381591797	920.47802734375	-413.6366882324219	-129.9348297119141	913.9194946289062	-101.1523361206055	-155.0466613769531	1065.663452148438	-267.71240234375	-112.7413177490234	660.5191650390625	-420.4632263183594	-442.4467468261719	538.7861328125	-379.4363708496094	-191.9823303222656	685.1787719726562	-419.0681457519531	-144.0692596435547	562.853271484375	-406.0297241210938	292.1302795410156	153.4065399169922	-119.9333724975586	-346.6320495605469	556.494140625	-403.9282836914062	-223.4793853759766	592.0389404296875	-394.1339721679688	81.04911041259766	678.4390869140625	-94.22574615478516	-681.6583862304688	292.03515625	-325.4447631835938	6.178268432617188	649.8431396484375	-85.71485900878906	111.6013107299805	585.4232177734375	-126.1721343994141	34.06597137451172	560.4634399414062	-117.3977203369141	-211.418701171875	539.27490234375	-403.7518615722656	77.24211120605469	542.1409301757812	-116.7310180664062	-333.5744018554688	477.4215393066406	-402.307861328125	-431.5636291503906	462.076416015625	-386.0057983398438	137.2489929199219	434.0249328613281	-115.984001159668	-692.8298950195312	367.7331848144531	-364.1099853515625	59.7906494140625	417.2815551757812	-103.7259216308594	-604.0452880859375	511.3512878417969	-246.1187133789062	157.5420532226562	334.4701538085938	-126.5640182495117	79.62467956542969	321.36767578125	-116.2488021850586	-603.917236328125	470.5567016601562	-342.7528686523438	163.5272674560547	142.017822265625	-150.1016693115234	343.5737915039062	201.2478942871094	-172.9093475341797	115.3045501708984	98.00021362304688	-209.1616668701172	140.3814239501953	82.85682678222656	-238.6422576904297	125.7830352783203	72.18404388427734	-190.4252777099609	-618.6569213867188	530.8112182617188	-293.7985534667969
162	0.805	28.25035095214844	1488.251220703125	-406.0170593261719	-28.82141876220703	1466.6455078125	-108.2881164550781	-44.27678680419922	1022.052307128906	-413.435302734375	-36.97689056396484	1016.130737304688	-115.3557815551758	6.271276950836182	968.352294921875	-400.0633850097656	-558.4886474609375	526.4857177734375	-279.8447570800781	19.7330379486084	970.9695434570312	-146.3857116699219	-139.1640930175781	916.5494995117188	-414.2420654296875	-110.7760772705078	910.1932983398438	-100.8242645263672	-135.6097717285156	1061.706665039062	-267.7484436035156	-89.13813018798828	656.007080078125	-421.5848999023438	-416.6625061035156	539.6436157226562	-379.2152709960938	-169.276123046875	679.6256103515625	-419.5197448730469	-119.1478042602539	557.9951782226562	-407.6948547363281	306.2012329101562	147.6108856201172	-121.053596496582	-320.1248168945312	554.2354736328125	-404.3681030273438	-199.0053558349609	585.9127807617188	-394.749755859375	100.2037963867188	674.4069213867188	-94.84096527099608	-662.0107421875	301.1082153320312	-327.6060485839844	25.32365608215332	646.1722412109375	-87.20397186279297	130.6919097900391	582.2495727539062	-127.6770782470703	53.23418045043945	556.7398681640625	-118.0673828125	-186.1950836181641	533.5645141601562	-405.2782897949219	96.73210906982422	538.374755859375	-117.8322982788086	-309.2092590332031	475.0687255859375	-403.3501892089844	-407.8178405761719	462.2740478515625	-386.4750061035156	155.1049957275391	429.487060546875	-117.267448425293	-670.981689453125	377.6913146972656	-365.5065002441406	77.5320053100586	413.5533142089844	-104.6462860107422	-578.1728515625	517.3175048828125	-245.2931823730469	174.0374450683594	329.2125244140625	-127.9310302734375	95.86384582519533	317.1639099121094	-117.5943374633789	-579.1934814453125	477.8593444824219	-342.7848205566406	177.6303405761719	137.2313079833984	-151.3522033691406	358.151123046875	194.8346099853516	-173.5145874023438	129.0608978271484	93.54015350341795	-210.5215301513672	153.9441528320312	78.615966796875	-240.6576843261719	139.3667602539062	67.91903686523438	-191.9044036865234	-591.6577758789062	537.7342529296875	-293.2059020996094
